<svg id="visual" viewBox="0 0 960 540" width="960" height="540" xmlns="http://www.w3.org/2000/svg" xmlns:xlink="http://www.w3.org/1999/xlink" version="1.1"><rect x="0" y="0" width="960" height="540" fill="#001220"></rect><path d="M0 375L22.8 368.7C45.7 362.3 91.3 349.7 137 347.5C182.7 345.3 228.3 353.7 274 355.3C319.7 357 365.3 352 411.2 356.5C457 361 503 375 548.8 379.2C594.7 383.3 640.3 377.7 686 374.8C731.7 372 777.3 372 823 374C868.7 376 914.3 380 937.2 382L960 384L960 541L937.2 541C914.3 541 868.7 541 823 541C777.3 541 731.7 541 686 541C640.3 541 594.7 541 548.8 541C503 541 457 541 411.2 541C365.3 541 319.7 541 274 541C228.3 541 182.7 541 137 541C91.3 541 45.7 541 22.8 541L0 541Z" fill="#4facf7"></path><path d="M0 379L22.8 377.8C45.7 376.7 91.3 374.3 137 380.3C182.7 386.3 228.3 400.7 274 402.2C319.7 403.7 365.3 392.3 411.2 391.5C457 390.7 503 400.3 548.8 402.2C594.7 404 640.3 398 686 397.5C731.7 397 777.3 402 823 404.7C868.7 407.3 914.3 407.7 937.2 407.8L960 408L960 541L937.2 541C914.3 541 868.7 541 823 541C777.3 541 731.7 541 686 541C640.3 541 594.7 541 548.8 541C503 541 457 541 411.2 541C365.3 541 319.7 541 274 541C228.3 541 182.7 541 137 541C91.3 541 45.7 541 22.8 541L0 541Z" fill="#3d9dfc"></path><path d="M0 448L22.8 442.5C45.7 437 91.3 426 137 422.8C182.7 419.7 228.3 424.3 274 423.2C319.7 422 365.3 415 411.2 413.8C457 412.7 503 417.3 548.8 419.8C594.7 422.3 640.3 422.7 686 427C731.7 431.3 777.3 439.7 823 445.7C868.7 451.7 914.3 455.3 937.2 457.2L960 459L960 541L937.2 541C914.3 541 868.7 541 823 541C777.3 541 731.7 541 686 541C640.3 541 594.7 541 548.8 541C503 541 457 541 411.2 541C365.3 541 319.7 541 274 541C228.3 541 182.7 541 137 541C91.3 541 45.7 541 22.8 541L0 541Z" fill="#408bfe"></path><path d="M0 437L22.8 443.5C45.7 450 91.3 463 137 465C182.7 467 228.3 458 274 452.3C319.7 446.7 365.3 444.3 411.2 442C457 439.7 503 437.3 548.8 442.7C594.7 448 640.3 461 686 463.8C731.7 466.7 777.3 459.3 823 452.3C868.7 445.3 914.3 438.7 937.2 435.3L960 432L960 541L937.2 541C914.3 541 868.7 541 823 541C777.3 541 731.7 541 686 541C640.3 541 594.7 541 548.8 541C503 541 457 541 411.2 541C365.3 541 319.7 541 274 541C228.3 541 182.7 541 137 541C91.3 541 45.7 541 22.8 541L0 541Z" fill="#5576fb"></path><path d="M0 472L22.8 476.7C45.7 481.3 91.3 490.7 137 496.2C182.7 501.7 228.3 503.3 274 501.7C319.7 500 365.3 495 411.2 495.7C457 496.3 503 502.7 548.8 502.5C594.7 502.3 640.3 495.7 686 490.2C731.7 484.7 777.3 480.3 823 484.2C868.7 488 914.3 500 937.2 506L960 512L960 541L937.2 541C914.3 541 868.7 541 823 541C777.3 541 731.7 541 686 541C640.3 541 594.7 541 548.8 541C503 541 457 541 411.2 541C365.3 541 319.7 541 274 541C228.3 541 182.7 541 137 541C91.3 541 45.7 541 22.8 541L0 541Z" fill="#715df2"></path></svg>